#!OML:ASF H:\MichaelJackson\Top Level 1\Subject 1\Session 1\male.ASF
:FULLY-SPECIFIED
:DEGREES
1148
root 21.268 16.346 17.6893 -366.332 -43.6076 7.29713
lowerback 11.6274 -1.10028 -11.7024
upperback 1.54564 -3.46214 -6.89534
thorax -4.66846 -1.61979 -0.210812
lowerneck -9.05462 0.278721 1.20946
upperneck 4.1688 -0.0464458 3.95565
head 2.93074 0.142736 1.07205
rclavicle -2.18663e-015 6.67916e-014
rhumerus -238.744 177.511 -273.189
rradius 101.147
rwrist -5.06741
rhand -20.6314 -30.7519
rfingers 7.12502
rthumb 5.7302 -420.654
lclavicle -2.18663e-015 6.67916e-014
lhumerus -48.0363 -35.7022 100.776
lradius 67.0904
lwrist 14.8998
lhand 26.2765 24.7306
lfingers 7.12502
lthumb 50.3305 45.7781
rfemur -82.7406 -11.5256 43.7377
rtibia 115.503
rfoot 23.8054 21.8492
rtoes -29.8828
lfemur -10.0885 20.1109 -19.7148
ltibia 40.984
lfoot -17.8598 -38.4882
ltoes 43.6176
1149
root 21.1542 16.3575 17.6706 -365.056 -41.3518 6.25881
lowerback 11.513 -1.17808 -11.1827
upperback 1.45212 -3.45283 -6.58425
thorax -4.71203 -1.60868 -0.165864
lowerneck -9.12779 -0.109959 0.963687
upperneck 4.47244 -0.549251 3.96918
head 3.05847 -0.10416 1.09615
rclavicle 4.77083e-014 -7.15625e-014
rhumerus -238.419 175.988 -273.072
rradius 100.967
rwrist -5.51739
rhand -17.4566 -28.1486
rfingers 7.12502
rthumb 8.79473 -417.945
lclavicle 4.77083e-014 -7.15625e-014
lhumerus -47.5957 -35.8294 100.376
lradius 67.0902
lwrist 15.4879
lhand 24.6894 23.9519
lfingers 7.12502
lthumb 48.8758 45.7455
rfemur -82.4842 -12.3747 42.3898
rtibia 113.58
rfoot 21.6156 21.4925
rtoes -31.1169
lfemur -10.8683 20.5269 -18.9461
ltibia 41.3198
lfoot -18.5097 -37.6221
ltoes 42.3018
1150
root 21.0401 16.3673 17.6536 -363.941 -39.0894 5.23848
lowerback 11.4486 -1.24076 -10.6119
upperback 1.39473 -3.42195 -6.24494
thorax -4.74745 -1.58997 -0.122139
lowerneck -9.18107 -0.493355 0.726319
upperneck 4.75958 -1.04489 3.98428
head 3.17859 -0.348142 1.1184
rclavicle -6.93758e-014 5.08889e-014
rhumerus -237.971 174.37 -272.748
rradius 100.708
rwrist -6.02509
rhand -14.531 -25.6092
rfingers 7.12502
rthumb 11.6171 -415.267
lclavicle -6.93758e-014 5.08889e-014
lhumerus -47.1555 -35.9917 99.9345
lradius 67.1693
lwrist 15.9456
lhand 22.9223 23.0878
lfingers 7.12502
lthumb 47.247 45.6444
rfemur -82.0246 -13.2183 40.8919
rtibia 111.434
rfoot 19.817 20.8146
rtoes -31.5373
lfemur -11.5658 20.8575 -18.1571
ltibia 41.6522
lfoot -19.2545 -36.4656
ltoes 40.8469
1151
root 20.9253 16.376 17.6386 -363.013 -36.8208 4.28275
lowerback 11.4357 -1.29454 -10.0409
upperback 1.36147 -3.38576 -5.88542
thorax -4.78499 -1.57003 -0.0581801
lowerneck -9.22026 -0.864103 0.499926
upperneck 5.06337 -1.52511 3.99737
head 3.30328 -0.584518 1.13799
rclavicle -1.21259e-014 -6.20208e-014
rhumerus -237.409 172.607 -272.241
rradius 100.384
rwrist -6.65647
rhand -12.0572 -23.3437
rfingers 7.12502
rthumb 14.0018 -412.852
lclavicle -1.21259e-014 -6.20208e-014
lhumerus -46.7305 -36.1709 99.4638
lradius 67.3067
lwrist 16.2646
lhand 20.942 22.1408
lfingers 7.12502
lthumb 45.4116 45.4764
rfemur -81.3379 -14.0561 39.2066
rtibia 109.104
rfoot 18.5068 19.7781
rtoes -31.171
lfemur -12.1369 21.004 -17.3731
ltibia 41.9143
lfoot -20.0013 -35.1718
ltoes 39.3678
1152
root 20.8094 16.3841 17.6256 -362.265 -34.5433 3.42846
lowerback 11.4385 -1.35194 -9.51364
upperback 1.34165 -3.36234 -5.51933
thorax -4.81336 -1.5572 0.0371398
lowerneck -9.23489 -1.21354 0.299465
upperneck 5.39264 -1.98013 4.00366
head 3.43295 -0.808303 1.15134
rclavicle -2.32578e-014 1.59028e-014
rhumerus -236.745 170.648 -271.58
rradius 100.028
rwrist -7.4501
rhand -10.1988 -21.5797
rfingers 7.12502
rthumb 15.7922 -410.956
lclavicle -2.32578e-014 1.59028e-014
lhumerus -46.3169 -36.3363 98.9486
lradius 67.4814
lwrist 16.4293
lhand 18.8061 21.1324
lfingers 7.12502
lthumb 43.4213 45.2278
rfemur -80.4224 -14.8747 37.2952
rtibia 106.622
rfoot 17.6827 18.3534
rtoes -29.9854
lfemur -12.5829 20.9027 -16.6138
ltibia 42.0575
lfoot -20.6407 -33.9541
ltoes 37.9914
1153
root 20.6917 16.3921 17.615 -361.667 -32.2545 2.69707
lowerback 11.4277 -1.42121 -9.06466
upperback 1.32249 -3.36478 -5.15892
thorax -4.82808 -1.55715 0.171236
lowerneck -9.25311 -1.53915 0.131347
upperneck 5.77608 -2.40997 4.01226
head 3.58297 -1.01819 1.16048
rclavicle -4.65156e-014 1.90833e-014
rhumerus -235.982 168.476 -270.781
rradius 99.6635
rwrist -8.37607
rhand -9.0343 -20.4909
rfingers 7.12502
rthumb 16.9134 -409.774
lclavicle -4.65156e-014 1.90833e-014
lhumerus -45.9083 -36.4561 98.372
lradius 67.6658
lwrist 16.4087
lhand 16.5661 20.0539
lfingers 7.12502
lthumb 41.3237 44.8665
rfemur -79.2765 -15.6489 35.133
rtibia 104.009
rfoot 17.2162 16.5746
rtoes -28.1446
lfemur -12.9303 20.5155 -15.8913
ltibia 42.0588
lfoot -21.1124 -32.9899
ltoes 36.7909
1154
root 20.5716 16.4 17.6069 -361.177 -29.9575 2.10137
lowerback 11.3581 -1.50749 -8.7203
upperback 1.28859 -3.39941 -4.81363
thorax -4.81897 -1.57249 0.348496
lowerneck -9.25192 -1.84231 -0.0169903
upperneck 6.21214 -2.81592 4.0373
head 3.74894 -1.21472 1.17232
rclavicle 8.15017e-015 1.59028e-015
rhumerus -235.14 166.091 -269.85
rradius 99.3239
rwrist -9.38116
rhand -8.54167 -20.1789
rfingers 7.12502
rthumb 17.3876 -409.421
lclavicle 8.15017e-015 1.59028e-015
lhumerus -45.5061 -36.5025 97.7239
lradius 67.8349
lwrist 16.1994
lhand 14.2845 18.9123
lfingers 7.12502
lthumb 39.1777 44.3812
rfemur -77.9018 -16.3432 32.7046
rtibia 101.275
rfoot 16.9476 14.5108
rtoes -25.815
lfemur -13.2231 19.8392 -15.2196
ltibia 41.9181
lfoot -21.4147 -32.3824
ltoes 35.7772
1155
root 20.4483 16.4085 17.6014 -360.747 -27.6713 1.60931
lowerback 11.212 -1.61127 -8.46645
upperback 1.22898 -3.4643 -4.48365
thorax -4.78843 -1.60207 0.560296
lowerneck -9.23736 -2.12593 -0.1442
upperneck 6.70538 -3.20282 4.07843
head 3.934 -1.40004 1.18628
rclavicle 2.08724e-014 0
rhumerus -234.23 163.517 -268.781
rradius 99.0277
rwrist -10.366
rhand -8.61195 -20.6421
rfingers 7.12502
rthumb 17.3199 -409.89
lclavicle 2.08724e-014 0
lhumerus -45.1069 -36.4515 96.9924
lradius 67.9642
lwrist 15.806
lhand 12.0147 17.6968
lfingers 7.12502
lthumb 37.0346 43.7523
rfemur -76.2744 -16.9012 30.04
rtibia 98.4134
rfoot 16.6989 12.2677
rtoes -23.3699
lfemur -13.4969 18.917 -14.5694
ltibia 41.6518
lfoot -21.5498 -32.1598
ltoes 34.957
1156
root 20.3215 16.418 17.5988 -360.343 -25.4075 1.19386
lowerback 10.9796 -1.73244 -8.28191
upperback 1.13815 -3.55633 -4.17081
thorax -4.73777 -1.64457 0.792056
lowerneck -9.21109 -2.39207 -0.256408
upperneck 7.25201 -3.57297 4.13529
head 4.13766 -1.57534 1.20326
rclavicle -1.86858e-014 4.77083e-015
rhumerus -233.247 160.805 -267.544
rradius 98.781
rwrist -11.2566
rhand -8.99178 -21.7337
rfingers 7.12502
rthumb 16.9544 -411.014
lclavicle -1.86858e-014 4.77083e-015
lhumerus -44.707 -36.2954 96.163
lradius 68.0414
lwrist 15.2547
lhand 9.81153 16.4042
lfingers 7.12502
lthumb 34.9476 42.9725
rfemur -74.3743 -17.2723 27.1657
rtibia 95.4131
rfoot 16.3848 9.9197
rtoes -20.9672
lfemur -13.7793 17.8072 -13.9224
ltibia 41.2837
lfoot -21.5608 -32.2574
ltoes 34.2197
1157
root 20.1917 16.4291 17.599 -359.954 -23.1853 0.824686
lowerback 10.666 -1.86637 -8.12968
upperback 1.02362 -3.66537 -3.87828
thorax -4.66453 -1.696 1.0183
lowerneck -9.1729 -2.6432 -0.35951
upperneck 7.83333 -3.92844 4.20639
head 4.35374 -1.74204 1.22375
rclavicle 7.39479e-014 -9.54166e-015
rhumerus -232.173 158.025 -266.113
rradius 98.5869
rwrist -12.0012
rhand -9.48004 -23.2537
rfingers 7.12502
rthumb 16.4843 -412.573
lclavicle 7.39479e-014 -9.54166e-015
lhumerus -44.2986 -36.0381 95.2261
lradius 68.0625
lwrist 14.6097
lhand 7.75095 15.1073
lfingers 7.12502
lthumb 32.9902 42.1096
rfemur -72.1736 -17.4029 24.1198
rtibia 92.2655
rfoot 15.995 7.53062
rtoes -18.6535
lfemur -14.0676 16.606 -13.2542
ltibia 40.8355
lfoot -21.4214 -32.5932
ltoes 33.6284
1158
root 20.0595 16.4421 17.6024 -359.582 -21.0365 0.460241
lowerback 10.2841 -2.00359 -7.95657
upperback 0.897872 -3.77325 -3.60256
thorax -4.56677 -1.74874 1.21082
lowerneck -9.08298 -2.87841 -0.407424
upperneck 8.74014 -4.28657 4.35359
head 4.20579 -1.89056 1.12999
rclavicle 5.00937e-014 9.54166e-015
rhumerus -230.981 155.25 -264.444
rradius 98.4571
rwrist -12.6279
rhand -9.81986 -25.0452
rfingers 7.12502
rthumb 16.1571 -414.392
lclavicle 5.00937e-014 9.54166e-015
lhumerus -43.8736 -35.6811 94.185
lradius 68.0264
lwrist 13.9341
lhand 5.85012 13.8381
lfingers 7.12502
lthumb 31.1805 41.2051
rfemur -69.6546 -17.2304 20.966
rtibia 88.9607
rfoot 15.5706 5.19058
rtoes -16.4597
lfemur -14.3414 15.4153 -12.5317
ltibia 40.3252
lfoot -21.1939 -33.0299
ltoes 33.0673
